<?xml version="1.0" encoding="UTF-8"?>
<svg width="159px" height="159px" viewBox="0 0 159 159" version="1.1" xmlns="http://www.w3.org/2000/svg" xmlns:xlink="http://www.w3.org/1999/xlink">
    <!-- Generator: Sketch 48.2 (47327) - http://www.bohemiancoding.com/sketch -->
    <title>link</title>
    <desc>Created with Sketch.</desc>
    <defs></defs>
    <g id="Artboard-2" stroke="none" stroke-width="1" fill="none" fill-rule="evenodd" transform="translate(-1974.000000, -939.000000)">
        <g id="link" transform="translate(1974.000000, 939.000000)">
            <circle id="Oval-6" fill="#D8D8D8" cx="79.5" cy="79.5" r="79.5"></circle>
            <g id="Page-1" transform="translate(36.000000, 36.000000)" fill="#545454">
                <path d="M83.004,8.895 L79.1056,4.9966 C75.9806,1.8716 71.8283,0.1489 67.4066,0.1489 C62.9849,0.1489 58.8324,1.8716 55.7036,4.9966 L42.0556,18.6446 L45.954,22.543 L59.602,8.895 C63.7739,4.727 71.036,4.727 75.207,8.895 L79.1054,12.7934 C81.1874,14.8754 82.3398,17.6489 82.3398,20.5942 C82.3398,23.5395 81.1953,26.309 79.1054,28.395 L57.6564,49.848 C53.4845,54.016 46.2224,54.016 42.0514,49.848 L38.153,45.9496 L34.2507,49.8519 L38.1491,53.7503 C41.2741,56.8753 45.4264,58.6019 49.8481,58.6019 C54.2698,58.6019 58.4223,56.8792 61.5511,53.7542 L83.0001,32.3012 C86.1251,29.1762 87.8517,25.016 87.8517,20.6022 C87.85561,16.1842 86.129,12.0202 83.004,8.8952 L83.004,8.895 Z" id="Fill-1"></path>
                <path d="M28.395,79.105 C24.2231,83.2769 16.965,83.2769 12.793,79.105 L8.8946,75.2066 C6.8126,73.1246 5.6602,70.3511 5.6602,67.4058 C5.6602,64.4605 6.8047,61.691 8.8946,59.6011 L30.3436,38.1521 C34.6483,33.8513 41.6486,33.8513 45.9486,38.1521 L49.847,42.0505 L53.7454,38.1521 L49.8509,34.2498 C43.3978,27.8006 32.9019,27.7967 26.4489,34.2498 L4.9999,55.6988 C1.874899,58.8238 0.148299,62.984 0.148299,67.4018 C0.148299,71.8237 1.870999,75.976 4.9999,79.1008 L8.8983,82.9992 C12.0233,86.124204 16.1756,87.850804 20.5973,87.850804 C25.019,87.850804 29.1715,86.128104 32.2963,82.9992 L45.9483,69.3512 L42.0499,65.4528 L28.395,79.105 Z" id="Fill-2"></path>
            </g>
        </g>
    </g>
</svg>