<?xml version="1.0" encoding="UTF-8"?>
<svg width="159px" height="159px" viewBox="0 0 159 159" version="1.1" xmlns="http://www.w3.org/2000/svg" xmlns:xlink="http://www.w3.org/1999/xlink">
    <!-- Generator: Sketch 48.2 (47327) - http://www.bohemiancoding.com/sketch -->
    <title>search</title>
    <desc>Created with Sketch.</desc>
    <defs></defs>
    <g id="Artboard-2" stroke="none" stroke-width="1" fill="none" fill-rule="evenodd" transform="translate(-1770.000000, -936.000000)">
        <g id="search" transform="translate(1770.000000, 936.000000)">
            <circle id="Oval-6" fill="#D8D8D8" cx="79.5" cy="79.5" r="79.5"></circle>
            <path d="M119.554721,112.817666 L94.5380632,87.7972287 C98.3857139,82.7453359 100.550884,76.2500452 100.550884,69.2720822 C100.550884,51.9513071 86.599108,38 69.2777513,38 C51.9563945,38 38,51.9559259 38,69.2767011 C38,86.5974763 51.9517755,100.548783 69.2731322,100.548783 C76.2513295,100.548783 82.5031845,98.3836865 87.7989007,94.5361649 L112.820178,119.556602 C113.78097,120.517362 114.985347,121 116.189759,121 C117.394171,121 118.593963,120.517362 119.55934,119.556602 C121.480972,117.630532 121.480972,114.743736 119.554825,112.817781 L119.554721,112.817666 Z M69.5,91 C57.5540267,91 48,81.4459733 48,69.5 C48,57.5540267 57.5540267,48 69.5,48 C81.4459733,48 91,57.5540267 91,69.5 C91,81.4413867 81.4415013,91 69.5,91 Z" id="Page-1" fill="#545454"></path>
        </g>
    </g>
</svg>